# xmcd CD database file
#
# Track frame offsets:
#	150
#	15492
#	31232
#	45695
#	58390
#	70190
#	78195
#	93570
#	100177
#	109095
#	125165
#	139907
#	146497
#
# Disc length: 2121 seconds
#
# Revision: 3
# Processed by: cddbd v1.5.2PL0 Copyright (c) Steve Scherf et al.
# Submitted via: CDex 1.70beta2
#
DISCID=b508470d
DTITLE=The Daydream - Melody Tree
DYEAR=2006
DGENRE=New Age
TTITLE0=A Princess Of Goguryeo
TTITLE1=My Home
TTITLE2=Serenade In Autumn
TTITLE3=Again
TTITLE4=Pour Chopin
TTITLE5=Kissing Bird
TTITLE6=Running On The Clouds(베이스-한경훈)
TTITLE7=A Melody Tree
TTITLE8=No Gunri(6.25때의 노근리를 기리며...)
TTITLE9=A Princess Of Goguryeo(해금-신날새)
TTITLE10=My Home(piano solo)
TTITLE11=A Melody Tree(piano solo)
TTITLE12=Again(piano solo)
EXTD=YEAR: 2006
EXTT0=
EXTT1=
EXTT2=
EXTT3=
EXTT4=
EXTT5=
EXTT6=
EXTT7=
EXTT8=
EXTT9=
EXTT10=
EXTT11=
EXTT12=
PLAYORDER=
